<mxfile host="app.diagrams.net" agent="Mozilla/5.0 (Macintosh; Intel Mac OS X 10_15_7) AppleWebKit/537.36 (KHTML, like Gecko) Chrome/141.0.0.0 Safari/537.36" version="28.2.6">
  <diagram name="PÃ¡gina-1" id="M4theD18i7T00k7EbooI">
    <mxGraphModel dx="774" dy="751" grid="1" gridSize="10" guides="1" tooltips="1" connect="1" arrows="1" fold="1" page="1" pageScale="1" pageWidth="827" pageHeight="1169" math="0" shadow="0">
      <root>
        <mxCell id="0" />
        <mxCell id="1" parent="0" />
        <mxCell id="BJ6QeiDM1gvr3EQgfgl8-4" value="" style="rounded=0;whiteSpace=wrap;html=1;fillColor=#d5e8d4;strokeColor=#82b366;" vertex="1" parent="1">
          <mxGeometry x="83" y="180" width="94" height="120" as="geometry" />
        </mxCell>
        <mxCell id="iA5-69MqG6F6SezPsYY_-5" style="edgeStyle=orthogonalEdgeStyle;rounded=0;orthogonalLoop=1;jettySize=auto;html=1;exitX=1;exitY=0.5;exitDx=0;exitDy=0;entryX=0;entryY=0.5;entryDx=0;entryDy=0;" parent="1" source="iA5-69MqG6F6SezPsYY_-1" target="iA5-69MqG6F6SezPsYY_-2" edge="1">
          <mxGeometry relative="1" as="geometry" />
        </mxCell>
        <mxCell id="iA5-69MqG6F6SezPsYY_-6" value="traces" style="edgeLabel;html=1;align=center;verticalAlign=middle;resizable=0;points=[];" parent="iA5-69MqG6F6SezPsYY_-5" vertex="1" connectable="0">
          <mxGeometry x="-0.2364" y="-2" relative="1" as="geometry">
            <mxPoint as="offset" />
          </mxGeometry>
        </mxCell>
        <mxCell id="iA5-69MqG6F6SezPsYY_-8" style="edgeStyle=orthogonalEdgeStyle;rounded=0;orthogonalLoop=1;jettySize=auto;html=1;exitX=0.5;exitY=0;exitDx=0;exitDy=0;" parent="1" source="iA5-69MqG6F6SezPsYY_-1" target="iA5-69MqG6F6SezPsYY_-7" edge="1">
          <mxGeometry relative="1" as="geometry" />
        </mxCell>
        <mxCell id="iA5-69MqG6F6SezPsYY_-9" value="RW" style="edgeLabel;html=1;align=center;verticalAlign=middle;resizable=0;points=[];" parent="iA5-69MqG6F6SezPsYY_-8" vertex="1" connectable="0">
          <mxGeometry x="-0.1069" y="2" relative="1" as="geometry">
            <mxPoint as="offset" />
          </mxGeometry>
        </mxCell>
        <mxCell id="iA5-69MqG6F6SezPsYY_-1" value="budget-tracker-api" style="rounded=0;whiteSpace=wrap;html=1;fillColor=#d5e8d4;strokeColor=#82b366;" parent="1" vertex="1">
          <mxGeometry x="70" y="380" width="120" height="60" as="geometry" />
        </mxCell>
        <mxCell id="iA5-69MqG6F6SezPsYY_-4" style="edgeStyle=orthogonalEdgeStyle;rounded=0;orthogonalLoop=1;jettySize=auto;html=1;exitX=1;exitY=0.5;exitDx=0;exitDy=0;entryX=0;entryY=0.5;entryDx=0;entryDy=0;" parent="1" source="iA5-69MqG6F6SezPsYY_-2" target="iA5-69MqG6F6SezPsYY_-3" edge="1">
          <mxGeometry relative="1" as="geometry" />
        </mxCell>
        <mxCell id="iA5-69MqG6F6SezPsYY_-2" value="otel-collector" style="rounded=0;whiteSpace=wrap;html=1;fillColor=#dae8fc;strokeColor=#6c8ebf;" parent="1" vertex="1">
          <mxGeometry x="300" y="380" width="120" height="60" as="geometry" />
        </mxCell>
        <mxCell id="iA5-69MqG6F6SezPsYY_-3" value="jaeger" style="rounded=0;whiteSpace=wrap;html=1;fillColor=#dae8fc;strokeColor=#6c8ebf;" parent="1" vertex="1">
          <mxGeometry x="500" y="380" width="120" height="60" as="geometry" />
        </mxCell>
        <mxCell id="iA5-69MqG6F6SezPsYY_-7" value="" style="dashed=0;outlineConnect=0;html=1;align=center;labelPosition=center;verticalLabelPosition=bottom;verticalAlign=top;shape=mxgraph.webicons.mongodb;gradientColor=#DFDEDE;strokeWidth=1;perimeterSpacing=1;shadow=1;" parent="1" vertex="1">
          <mxGeometry x="100" y="220" width="60" height="60" as="geometry" />
        </mxCell>
        <mxCell id="BJ6QeiDM1gvr3EQgfgl8-1" value="MongoDB" style="text;html=1;whiteSpace=wrap;strokeColor=none;fillColor=none;align=center;verticalAlign=middle;rounded=0;" vertex="1" parent="1">
          <mxGeometry x="100" y="190" width="60" height="30" as="geometry" />
        </mxCell>
        <mxCell id="BJ6QeiDM1gvr3EQgfgl8-2" value="" style="rounded=0;whiteSpace=wrap;html=1;fillColor=#dae8fc;strokeColor=#6c8ebf;" vertex="1" parent="1">
          <mxGeometry x="40" y="30" width="46" height="40" as="geometry" />
        </mxCell>
        <mxCell id="BJ6QeiDM1gvr3EQgfgl8-3" value="" style="rounded=0;whiteSpace=wrap;html=1;fillColor=#d5e8d4;strokeColor=#82b366;" vertex="1" parent="1">
          <mxGeometry x="40" y="80" width="46" height="40" as="geometry" />
        </mxCell>
        <mxCell id="BJ6QeiDM1gvr3EQgfgl8-5" value="Required" style="text;html=1;whiteSpace=wrap;strokeColor=none;fillColor=none;align=center;verticalAlign=middle;rounded=0;" vertex="1" parent="1">
          <mxGeometry x="86" y="85" width="60" height="30" as="geometry" />
        </mxCell>
        <mxCell id="BJ6QeiDM1gvr3EQgfgl8-6" value="Optional" style="text;html=1;whiteSpace=wrap;strokeColor=none;fillColor=none;align=center;verticalAlign=middle;rounded=0;" vertex="1" parent="1">
          <mxGeometry x="86" y="35" width="60" height="30" as="geometry" />
        </mxCell>
      </root>
    </mxGraphModel>
  </diagram>
</mxfile>
